<?xml version="1.0" ?><!DOCTYPE svg  PUBLIC '-//W3C//DTD SVG 1.1//EN'  'http://www.w3.org/Graphics/SVG/1.1/DTD/svg11.dtd'><svg enable-background="new 0 0 154.148 154.148" height="154.148" id="Layer_1" overflow="visible" version="1.1" viewBox="0 0 154.148 154.148" width="154.148" xml:space="preserve" xmlns="http://www.w3.org/2000/svg" xmlns:xlink="http://www.w3.org/1999/xlink"><g id="icon_2_"><circle cx="77.074" cy="77.074" fill="#32A04C" r="77.074"/><path d="M119.047,70.896c0.835,11.872-0.917,24.571-8.629,34.097c-10.564,13.603-30.087,17.585-45.961,12.255   c-16.86-5.536-29.108-22.519-28.745-40.306c-0.835-21.985,18.42-42.301,40.425-42.567c11.215-0.955,22.129,3.401,30.621,10.503   c-3.483,3.828-7.021,7.616-10.812,11.157c-7.473-4.54-16.47-7.999-25.201-4.927c-14.089,4.01-22.615,20.641-17.401,34.425   c4.311,14.39,21.814,22.293,35.541,16.244c7.103-2.546,11.783-9.101,13.836-16.148c-8.143-0.158-16.286-0.055-24.429-0.281   c-0.014-4.844-0.041-9.668-0.014-14.516C91.854,70.813,105.45,70.772,119.047,70.896z" fill="#FFFFFF"/></g></svg>