<?xml version="1.0" encoding="utf-8"?>
<!-- Generator: Adobe Illustrator 26.0.1, SVG Export Plug-In . SVG Version: 6.00 Build 0)  -->
<!DOCTYPE svg PUBLIC "-//W3C//DTD SVG 1.1//EN" "http://www.w3.org/Graphics/SVG/1.1/DTD/svg11.dtd" [
	<!ENTITY ns_extend "http://ns.adobe.com/Extensibility/1.0/">
	<!ENTITY ns_ai "http://ns.adobe.com/AdobeIllustrator/10.0/">
	<!ENTITY ns_graphs "http://ns.adobe.com/Graphs/1.0/">
	<!ENTITY ns_vars "http://ns.adobe.com/Variables/1.0/">
	<!ENTITY ns_imrep "http://ns.adobe.com/ImageReplacement/1.0/">
	<!ENTITY ns_sfw "http://ns.adobe.com/SaveForWeb/1.0/">
	<!ENTITY ns_custom "http://ns.adobe.com/GenericCustomNamespace/1.0/">
	<!ENTITY ns_adobe_xpath "http://ns.adobe.com/XPath/1.0/">
]>
<svg version="1.1" id="Layer_1" xmlns:x="&ns_extend;" xmlns:i="&ns_ai;" xmlns:graph="&ns_graphs;"
	 xmlns="http://www.w3.org/2000/svg" xmlns:xlink="http://www.w3.org/1999/xlink" x="0px" y="0px" viewBox="0 0 277.8 56.6"
	 style="enable-background:new 0 0 277.8 56.6;" xml:space="preserve">
<style type="text/css">
	.st0{fill-rule:evenodd;clip-rule:evenodd;}
	.st1{fill-rule:evenodd;clip-rule:evenodd;fill:#FF0772;}
	.st2{fill-rule:evenodd;clip-rule:evenodd;fill:#FFC907;}
	.st3{fill-rule:evenodd;clip-rule:evenodd;fill:#07DEFF;}
</style>
<metadata>
	<sfw  xmlns="&ns_sfw;">
		<slices></slices>
		<sliceSourceBounds  bottomLeftOrigin="true" height="56.5" width="277.8" x="0" y="0.1"></sliceSourceBounds>
	</sfw>
</metadata>
<g>
	<g>
		<g>
			<path d="M68.4,24.3c0,0,1.9-1.8,5.3-1.8c6,0,10.9,4.7,10.9,10.7s-4.9,10.9-10.9,10.9s-10.9-4.9-10.9-10.9V14.5h5.6V24.3z
				 M68.4,33.2c0,3.3,2,6,5.3,6s6-2.7,6-6s-2.7-5.8-6-5.8c-2.2,0-4.2,1.1-5.3,2.9V33.2z"/>
			<path d="M106.6,23.2v20.2H101v-1.6c0,0-2.1,2.2-5.5,2.2c-6.3,0-9.1-3.8-9.1-10.4V23.2H92v10.4c0,3.5,1.8,5.3,4.2,5.3
				c3.5,0,4.9-3.2,4.9-3.2V23.2H106.6z"/>
			<path d="M129.9,32.9v10.4h-5.6V32.9c0-3.5-1.7-5.3-4.2-5.3c-3.5,0-4.9,3.2-4.9,3.2v12.5h-5.6v-29h5.6v10.3c0,0,2.1-2.2,5.6-2.2
				C127.1,22.5,129.9,26.2,129.9,32.9z"/>
			<path d="M152.6,43.4h-5.5V33.3c0-3.5-2-5.9-4.9-5.9s-4.9,2.4-4.9,5.9c0,4.1,2.4,6,5.2,6c3.6,0,4.6-2.8,4.6-2.8v5.9
				c0,0-1.6,1.8-5.5,1.8c-6.2,0-9.8-5.3-9.8-10.9c0-5.9,4-10.8,10.4-10.8s10.4,4.9,10.4,10.8V43.4z"/>
			<path d="M160.9,43.4h-5.5v-29h5.5V43.4z"/>
			<path d="M176,28.3h-4.5v15.1h-5.6V28.3h-3.7v-5.1h3.7v-6h5.6v6h4.5V28.3z"/>
			<path d="M181.3,35.3c0.4,2.4,2.4,3.9,5.1,3.9c2.6,0,4.1-1,4.9-2.7h5.5c-1.1,4.4-5.2,7.5-10.4,7.5c-6,0-10.7-4.9-10.7-10.8
				s4.6-10.8,10.5-10.8s10.5,4.9,10.5,10.8v2L181.3,35.3L181.3,35.3z M191.4,31.3c-0.4-2.4-2.3-4-5.1-4s-4.6,1.6-5.1,4H191.4z"/>
			<path d="M204.5,25.1c0,0,1.5-2.3,5.6-2.3v5.5c-4.9,0-5.6,3.3-5.6,3.3v11.7H199V23.2h5.6v1.9H204.5z"/>
			<path d="M215.5,35.3c0.4,2.4,2.4,3.9,5.1,3.9c2.6,0,4.1-1,4.9-2.7h5.5c-1.1,4.4-5.2,7.5-10.4,7.5c-6,0-10.7-4.9-10.7-10.8
				s4.6-10.8,10.5-10.8s10.5,4.9,10.5,10.8v2L215.5,35.3L215.5,35.3z M225.6,31.3c-0.4-2.4-2.3-4-5.1-4s-4.6,1.6-5.1,4H225.6z"/>
			<path d="M240.6,27.5c-1.3,0-2.2,0.4-2.2,1.3c0,2.2,7.7,2.4,7.7,8.1c0,4.9-3.7,6.9-7.2,6.9s-6.3-1.9-6.3-1.9v-6
				c0,0,3.1,2.7,5.5,2.7c1.4,0,2.5-0.4,2.5-1.6c0-3-7.8-2.4-7.8-8.3c0-4.2,3.3-6.2,6.9-6.2s5.6,1.4,5.6,1.4v5.8
				C245.3,29.7,243,27.5,240.6,27.5z"/>
			<path d="M251.2,44.8c-2.1,0-3.8-1.7-3.8-3.8s1.8-3.8,3.8-3.8c2.1,0,3.8,1.7,3.8,3.8C255.1,43.1,253.3,44.8,251.2,44.8z"/>
			<path d="M262.7,43.4h-5.5v-29h5.5V43.4z"/>
			<path d="M277.8,28.3h-4.5v15.1h-5.6V28.3H264v-5.1h3.7v-6h5.6v6h4.5L277.8,28.3L277.8,28.3z"/>
		</g>
		<circle class="st0" cx="220.4" cy="17.6" r="2.8"/>
	</g>
	<g>
		<path class="st1" d="M41.7,24.3l-6.1,0.5v9.8c0,3.9-3.2,7.4-7.1,7.7L18,43.2V50c0,3.9,3.2,6.8,7.1,6.5L41.7,55
			c3.9-0.3,7.1-3.8,7.1-7.7V30.7C48.8,26.9,45.6,23.9,41.7,24.3z"/>
		<path class="st2" d="M23.7,37.9L7.1,39.4C3.2,39.7,0,36.8,0,32.9V16.3c0-3.9,3.2-7.4,7.1-7.8L23.7,7c3.9-0.3,7.1,2.6,7.1,6.5v16.6
			C30.8,34.1,27.6,37.6,23.7,37.9z"/>
		<path class="st3" d="M49.3,18.9l-9.6,0.8c-1.1,0.1-2.7,0.1-3.4-0.6c-0.8-0.7-0.7-2.1-0.7-3.2V5.3c0-2.3,1.9-4.3,4.1-4.5L49.3,0
			c2.3-0.2,4.1,1.5,4.1,3.8v10.6C53.4,16.7,51.5,18.7,49.3,18.9z"/>
	</g>
</g>
</svg>
