<svg xmlns="http://www.w3.org/2000/svg" viewBox="0 0 504.04 97.43"><defs><style>.cls-1{fill:none;}.cls-2{fill:#132968;}.cls-3{fill:#c028b9;}</style></defs><g id="Layer_2" data-name="Layer 2"><g id="Layer_1-2" data-name="Layer 1"><circle class="cls-1" cx="34.46" cy="34.13" r="12.81" transform="translate(-13.75 39.43) rotate(-50.99)"/><path class="cls-2" d="M84.74,19.29a28,28,0,0,0-19.08.94c6.42,16.61.8,41.83-5.54,77.16v0C82.26,78.68,98.69,65.91,103,52.25S98.42,23.6,84.74,19.29Z"/><path class="cls-3" d="M65.66,20.23c-.06-.17-.12-.34-.19-.5C58.74,3.12,38.25-4.25,21.63,2.48S-4.56,28.77,2.17,45.39s28.5,30.87,58,52v0C66.46,62.06,72.08,36.84,65.66,20.23ZM39.27,46a12.81,12.81,0,1,1,7.06-16.68A12.8,12.8,0,0,1,39.27,46Z"/><path class="cls-3" d="M161.73,55.88c0,10-8.22,18-18.6,18a18,18,0,0,1-18.39-18c0-10.1,8.08-18,18.46-18S161.73,45.85,161.73,55.88ZM134.28,56c0,5.43,3.76,9.33,8.92,9.33s8.91-4,8.91-9.33-3.83-9.48-8.91-9.48S134.28,50.45,134.28,56Z"/><path class="cls-3" d="M202.47,55.88c0,10.45-7,18.11-16.72,18.11a13.5,13.5,0,0,1-10.31-4.18v12a4.7,4.7,0,1,1-9.4,0V42.5a4.58,4.58,0,0,1,4.67-4.66,4.49,4.49,0,0,1,4.52,4.46c2.37-2.79,6.06-4.39,10.52-4.39C195.43,37.91,202.47,45.43,202.47,55.88Zm-9.54.07c0-5.57-3.7-9.54-8.92-9.54s-8.71,3.83-8.71,9.47,3.56,9.54,8.71,9.54S192.93,61.45,192.93,56Z"/><path class="cls-3" d="M236.76,52.67V69.25a4.58,4.58,0,0,1-9,1A14.38,14.38,0,0,1,217.61,74c-7.11,0-11.92-4.18-11.92-10.31s4.95-10,13-10h8.64V52.12c0-3.83-2.3-6.06-6.48-6.06a9.8,9.8,0,0,0-6.62,2.57,4.34,4.34,0,0,1-2.78,1.12,3.91,3.91,0,0,1-4-3.83,5.23,5.23,0,0,1,1.95-3.76c2.92-2.72,7.45-4.25,12.47-4.25C231.33,37.91,236.76,43.27,236.76,52.67Zm-9.4,7.6v-.42H220c-3.13,0-4.8,1.18-4.8,3.48s1.88,3.76,4.94,3.76C224.22,67.09,227.36,64.17,227.36,60.27Z"/><path class="cls-2" d="M266.73,69.32a4,4,0,0,1-2.36,3.76,12.17,12.17,0,0,1-4.88.91c-9,0-13.79-4.53-13.79-13V46.61h-1.95a4,4,0,1,1,0-7.94h1.95V33.94a4.7,4.7,0,1,1,9.4,0v4.73h6.34a4,4,0,1,1,0,7.94H255.1V60.2c0,3.83,1.81,5.36,6.2,5.36.56,0,1-.07,1.32-.07C265.13,65.49,266.73,67,266.73,69.32Z"/><path class="cls-2" d="M292.67,42.5c0,2.51-1.75,4.25-4.39,4.53-5,.35-8.08,3.62-8.08,8.92V69.18A4.62,4.62,0,0,1,275.53,74a4.67,4.67,0,0,1-4.74-4.81V42.64a4.6,4.6,0,0,1,4.67-4.73A4.51,4.51,0,0,1,280,42.16a11.22,11.22,0,0,1,8.43-3.9A4,4,0,0,1,292.67,42.5Z"/><path class="cls-2" d="M307.41,26.14a5.89,5.89,0,1,1-5.85-5.72A5.8,5.8,0,0,1,307.41,26.14Zm-10.59,43V42.64a4.7,4.7,0,1,1,9.4,0V69.18a4.7,4.7,0,1,1-9.4,0Z"/><path class="cls-2" d="M350,55.88C350,66.33,343,74,333.27,74A13.5,13.5,0,0,1,323,69.81v12a4.7,4.7,0,1,1-9.4,0V42.5a4.58,4.58,0,0,1,4.66-4.66,4.5,4.5,0,0,1,4.53,4.46c2.37-2.79,6.06-4.39,10.52-4.39C343,37.91,350,45.43,350,55.88Zm-9.55.07c0-5.57-3.69-9.54-8.91-9.54s-8.71,3.83-8.71,9.47,3.55,9.54,8.71,9.54S340.44,61.45,340.44,56Z"/><path class="cls-3" d="M352.93,67.51A6.44,6.44,0,0,1,359.48,61a6.48,6.48,0,1,1-6.55,6.48Z"/><path class="cls-3" d="M368.84,55.88c0-10.1,8.08-18,18.45-18,5.86,0,11.29,2.78,13.94,6.82a4.5,4.5,0,0,1,.83,2.51,4.19,4.19,0,0,1-4.18,4.18,3.8,3.8,0,0,1-3.2-1.46,9.23,9.23,0,0,0-7.25-3.49c-5.29,0-9.05,3.91-9.05,9.41s3.76,9.47,9.05,9.47a9.54,9.54,0,0,0,7.25-3.48,3.84,3.84,0,0,1,3.2-1.46,4.19,4.19,0,0,1,4.18,4.18A4,4,0,0,1,401.3,67c-2.86,4.39-7.88,7-14,7A18.11,18.11,0,0,1,368.84,55.88Z"/><path class="cls-3" d="M443.58,55.88c0,10-8.22,18-18.6,18a18,18,0,0,1-18.39-18c0-10.1,8.08-18,18.46-18S443.58,45.85,443.58,55.88ZM416.13,56c0,5.43,3.76,9.33,8.92,9.33S434,61.31,434,56s-3.83-9.48-8.91-9.48S416.13,50.45,416.13,56Z"/><path class="cls-3" d="M504,51.77V69.18A4.62,4.62,0,0,1,499.37,74a4.67,4.67,0,0,1-4.74-4.81V53.09c0-4.11-2.36-6.68-6.13-6.68a6.1,6.1,0,0,0-6.34,6.47v16.3A4.61,4.61,0,0,1,477.5,74a4.67,4.67,0,0,1-4.74-4.81V53.09c0-4.11-2.44-6.68-6.13-6.68s-6.34,2.64-6.34,6.68V69.18A4.61,4.61,0,0,1,455.63,74a4.67,4.67,0,0,1-4.74-4.81V42.64a4.6,4.6,0,0,1,4.67-4.73,4.45,4.45,0,0,1,4.38,3.48,13.32,13.32,0,0,1,9.34-3.48c4.46,0,8,1.74,10.24,4.94A15.31,15.31,0,0,1,491,37.91C499,37.91,504,43.27,504,51.77Z"/></g></g></svg>